<?xml version="1.0" standalone="no"?>
<!DOCTYPE svg PUBLIC "-//W3C//DTD SVG 20010904//EN"
 "http://www.w3.org/TR/2001/REC-SVG-20010904/DTD/svg10.dtd">
<svg version="1.0" xmlns="http://www.w3.org/2000/svg"
 width="500.000000pt" height="500.000000pt" viewBox="0 0 500.000000 500.000000"
 preserveAspectRatio="xMidYMid meet">
<metadata>
Created by potrace 1.16, written by Peter Selinger 2001-2019
</metadata>
<g transform="translate(0.000000,500.000000) scale(0.100000,-0.100000)"
fill="#fff" stroke="none">
<path d="M2280 3825 c-483 -76 -907 -443 -1059 -917 -108 -337 -76 -709 89
-1024 74 -143 145 -237 261 -349 256 -247 573 -375 929 -375 222 0 413 45 603
142 259 133 453 325 587 582 102 196 150 391 150 616 0 359 -127 673 -377 931
-205 211 -474 352 -752 394 -117 18 -316 18 -431 0z m708 -781 c209 -44 364
-189 416 -391 9 -34 16 -64 16 -67 0 -3 -36 -6 -79 -6 l-80 0 -16 58 c-55 190
-213 291 -457 292 -43 0 -78 -4 -78 -8 0 -5 11 -19 25 -32 45 -42 93 -125 120
-203 39 -118 40 -117 -55 -117 -76 0 -80 1 -80 23 -1 34 -44 131 -79 175 -17
22 -52 54 -77 71 -43 28 -48 29 -74 16 -47 -24 -127 -121 -150 -182 -44 -118
-48 -292 -9 -417 24 -80 79 -157 144 -201 l54 -37 35 22 c37 22 93 85 116 130
8 14 21 50 31 80 l17 55 76 3 c74 3 76 2 76 -21 0 -33 -37 -144 -62 -187 -12
-19 -39 -56 -60 -82 l-39 -48 79 0 c92 0 216 29 277 64 82 48 151 143 176 240
l11 46 80 0 80 0 -7 -32 c-27 -130 -77 -220 -165 -302 -112 -103 -248 -148
-455 -149 -85 0 -151 5 -192 15 -57 14 -66 14 -135 -5 -100 -27 -313 -28 -413
-3 -220 56 -358 185 -421 392 -29 92 -27 325 3 419 63 199 212 333 423 380 98
22 292 23 381 2 59 -14 71 -14 115 -1 110 34 291 37 432 8z"/>
<path d="M2110 2904 c-179 -38 -293 -150 -329 -322 -16 -75 -13 -225 4 -301
49 -208 214 -320 473 -321 45 0 82 2 82 5 0 3 -20 27 -45 53 -57 59 -110 160
-131 248 -23 97 -15 335 14 414 30 85 60 138 103 185 21 23 39 45 39 49 0 11
-143 5 -210 -10z"/>
</g>
</svg>
