<?xml version="1.0" standalone="no"?>
<!DOCTYPE svg PUBLIC "-//W3C//DTD SVG 20010904//EN"
 "http://www.w3.org/TR/2001/REC-SVG-20010904/DTD/svg10.dtd">
<svg version="1.0" xmlns="http://www.w3.org/2000/svg"
 width="500.000000pt" height="500.000000pt" viewBox="0 0 500.000000 500.000000"
 preserveAspectRatio="xMidYMid meet">
<metadata>
Created by potrace 1.16, written by Peter Selinger 2001-2019
</metadata>
<g transform="translate(0.000000,500.000000) scale(0.100000,-0.100000)"
fill="#000000" stroke="none">
<path d="M2280 3825 c-426 -67 -825 -373 -1002 -770 -136 -303 -156 -649 -57
-963 37 -118 127 -292 202 -393 201 -270 518 -465 852 -523 117 -21 333 -21
450 0 430 75 799 356 989 754 84 175 126 366 126 570 0 354 -131 676 -377 931
-205 211 -474 352 -752 394 -117 18 -316 18 -431 0z m708 -781 c209 -44 364
-189 416 -391 9 -34 16 -64 16 -67 0 -3 -36 -6 -79 -6 l-80 0 -16 58 c-43 150
-147 242 -312 277 -74 16 -223 20 -223 7 0 -5 11 -19 25 -32 45 -42 93 -125
120 -203 39 -118 39 -118 -51 -115 l-76 3 -17 55 c-31 98 -75 161 -147 209
-43 28 -48 29 -74 16 -47 -24 -127 -121 -150 -182 -44 -118 -48 -292 -9 -417
24 -80 79 -157 144 -201 l54 -37 35 22 c37 22 93 85 116 130 8 14 21 50 31 80
l17 55 76 3 c74 3 76 2 76 -21 0 -33 -37 -144 -62 -187 -12 -19 -39 -56 -60
-82 l-39 -48 79 0 c92 0 216 29 277 64 82 48 151 143 176 240 l11 46 80 0 80
0 -7 -32 c-13 -59 -46 -152 -68 -188 -30 -50 -105 -127 -155 -162 -137 -94
-395 -130 -597 -83 -46 10 -62 9 -127 -8 -98 -26 -312 -28 -413 -3 -214 52
-358 185 -419 386 -10 30 -20 105 -23 165 -17 342 143 572 447 640 97 22 291
22 381 1 59 -13 71 -13 115 0 110 34 291 37 432 8z"/>
<path d="M2110 2904 c-229 -49 -340 -202 -340 -467 1 -260 114 -415 339 -463
64 -13 231 -20 231 -9 0 3 -20 27 -45 53 -56 58 -110 159 -130 243 -20 86 -20
296 0 374 23 88 68 178 114 228 23 24 41 47 41 51 0 11 -143 5 -210 -10z"/>
</g>
</svg>
