<?xml version="1.0" standalone="no"?>
<!DOCTYPE svg PUBLIC "-//W3C//DTD SVG 20010904//EN"
 "http://www.w3.org/TR/2001/REC-SVG-20010904/DTD/svg10.dtd">
<svg version="1.0" xmlns="http://www.w3.org/2000/svg"
 width="500.000000pt" height="500.000000pt" viewBox="0 0 500.000000 500.000000"
 preserveAspectRatio="xMidYMid meet">
<metadata>
Created by potrace 1.16, written by Peter Selinger 2001-2019
</metadata>
<g transform="translate(0.000000,500.000000) scale(0.100000,-0.100000)"
fill="#000000" stroke="none">
<path d="M2653 3052 c-6 -4 49 -6 123 -4 110 3 148 0 216 -17 215 -54 346
-174 394 -362 9 -33 14 -62 12 -64 -2 -2 -30 -7 -64 -10 l-60 -7 -13 43 c-29
96 -92 189 -152 223 -26 15 -20 6 24 -34 61 -56 98 -117 118 -194 l11 -46 73
0 c39 0 74 2 77 5 10 11 -14 101 -48 173 -65 142 -205 247 -381 286 -74 16
-307 22 -330 8z"/>
<path d="M1155 2445 c2 -144 6 -184 28 -265 49 -186 128 -352 232 -489 66 -86
190 -209 276 -274 74 -55 169 -113 169 -104 0 3 -21 17 -47 32 -131 75 -292
220 -388 350 -171 229 -250 456 -265 755 l-8 165 3 -170z"/>
</g>
</svg>
